<?xml version="1.0" encoding="utf-8"?>
<!-- Generator: Adobe Illustrator 24.1.3, SVG Export Plug-In . SVG Version: 6.00 Build 0)  -->
<svg version="1.1" id="Layer_1" xmlns="http://www.w3.org/2000/svg" xmlns:xlink="http://www.w3.org/1999/xlink" x="0px" y="0px"
	 viewBox="0 0 228.4 97.2" style="enable-background:new 0 0 228.4 97.2;" xml:space="preserve">
<style type="text/css">
	.st0{fill:#007AC2;}
</style>
<path class="st0" d="M33.2,26.5c-0.3-0.5-0.7-0.9-1.1-1.2c-0.4-0.3-0.9-0.5-1.4-0.6c-0.5-0.1-1-0.1-1.4-0.1c-0.5,0-1,0.1-1.5,0.2
	c-0.6,0.1-1.1,0.3-1.6,0.6c-0.5,0.3-1,0.6-1.5,1.1c-0.5,0.5-0.9,1.1-1.2,1.8L9.2,53.8c-0.1,0.2-0.1,0.4-0.1,0.6
	c0,0.3,0.1,0.6,0.3,0.8c0.2,0.2,0.5,0.3,0.8,0.3h2.9c0.3,0,0.6-0.1,0.8-0.3c0.3-0.2,0.5-0.4,0.6-0.7l4.8-9.9H31l1.1,9.8
	c0,0.3,0.1,0.5,0.3,0.7c0.2,0.3,0.5,0.4,0.8,0.4h2.9c0.3,0,0.7-0.1,0.9-0.3c0.2-0.3,0.3-0.6,0.3-0.9v-0.2l-3.6-25.6
	C33.7,27.6,33.5,27,33.2,26.5 M21.3,40.5l6.1-10.9c0.2-0.4,0.8-0.5,1.2-0.5c0.7,0,0.8,0.5,0.8,0.5l1.3,10.9H21.3z M60.1,32.4
	c-0.8-0.8-1.7-1.4-2.9-1.8c-1.1-0.4-2.5-0.7-4-0.7c-3.5,0-6.4,1-8.6,2.9c-2.2,1.9-3.7,4.7-4.5,8.4l-0.6,3.1c-0.2,1-0.3,1.9-0.3,2.8
	c0,1.6,0.3,2.9,0.9,4c0.6,1.1,1.3,2,2.3,2.7c0.9,0.7,2,1.2,3.2,1.5c1.2,0.3,2.3,0.5,3.5,0.5h0c1.6,0,3.1-0.1,4.4-0.2
	c1.3-0.1,2.6-0.3,4.1-0.6c0.4-0.1,0.8-0.2,1.1-0.4c0.2-0.2,0.4-0.6,0.4-0.9l0.3-1.5l0,0v-0.2c0-0.2-0.1-0.5-0.3-0.7
	C58.7,51,58.5,51,58.2,51h-0.3c-1.2,0.2-2.5,0.3-4,0.4c-1.5,0.1-2.9,0.2-4.3,0.2c-1.8,0-3.1-0.4-4.1-1c-0.9-0.6-1.4-1.7-1.4-3.3
	c0-0.4,0-0.8,0.1-1.2c0-0.4,0.1-0.8,0.3-1.3l0.1-0.2h15.6c0.4,0,0.8-0.1,1.1-0.4c0.2-0.3,0.3-0.6,0.4-0.9l0.4-1.9
	c0.2-1,0.3-1.9,0.3-2.7c0-1.2-0.2-2.3-0.5-3.4C61.5,34.2,60.9,33.2,60.1,32.4 M57,40.7H45.3c0.2-0.9,0.5-1.7,0.9-2.4
	c0.4-0.8,0.9-1.5,1.6-2.1c0.6-0.6,1.3-1.1,2.1-1.4c0.8-0.3,1.7-0.5,2.7-0.5c3.3,0.1,4.6,1.3,4.7,4.2C57.3,39.1,57.2,39.9,57,40.7
	 M79.2,33.1l0.3-1.9l0,0V31c0-0.3-0.1-0.6-0.4-0.8c-0.3-0.2-0.6-0.2-0.9-0.2h-0.1c-1.1,0-2.3,0.1-3.5,0.4c-1,0.2-1.9,0.6-2.9,1.3v0
	v-0.2c0-0.3-0.1-0.6-0.3-0.8c-0.2-0.2-0.5-0.3-0.8-0.3h-2.2c-0.4,0-0.7,0.1-1,0.4c-0.3,0.2-0.5,0.5-0.5,0.8L62.5,54v0.2
	c0,0.3,0.1,0.6,0.3,0.8c0.2,0.2,0.5,0.3,0.8,0.3H66c0.4,0,0.7-0.1,1-0.4c0.3-0.2,0.5-0.5,0.6-0.8L71,35.9c1.1-0.6,2.1-1,3-1.3
	c1-0.2,2.1-0.4,3.4-0.4h0.1C78.3,34.3,79,33.8,79.2,33.1 M98.5,32.4c-0.8-0.8-1.8-1.4-2.9-1.8c-1.2-0.4-2.5-0.6-4-0.6
	c-7.2,0-11.8,3.8-13.1,11.1l-0.6,3.4c-0.1,0.4-0.1,0.8-0.2,1.2c0,0.4-0.1,0.8-0.1,1.3c0,1.3,0.2,2.5,0.6,3.5c0.4,1.1,1,2,1.8,2.8
	c0.8,0.8,1.8,1.4,2.9,1.8c1.2,0.4,2.5,0.6,3.9,0.6c1.9,0,3.6-0.3,5.1-0.8c1.5-0.5,2.8-1.3,3.9-2.2c1.1-1,2-2.1,2.6-3.5
	c0.7-1.4,1.2-2.9,1.5-4.6l0.6-3.4c0.1-0.4,0.1-0.8,0.2-1.3c0-0.4,0.1-0.9,0.1-1.3c0-1.3-0.2-2.4-0.6-3.5
	C99.8,34.1,99.2,33.2,98.5,32.4 M95.7,39.8c0,0.4-0.1,0.8-0.2,1.3l-0.6,3.4c-0.2,1.1-0.5,2-0.9,2.9c-0.4,0.9-1,1.6-1.6,2.2
	c-0.6,0.6-1.3,1.1-2.2,1.4c-0.8,0.3-1.7,0.5-2.7,0.5c-1.8,0-3-0.4-3.7-1.1c-0.7-0.7-1.1-1.7-1.1-3.3c0-0.7,0.1-1.6,0.3-2.5l0.6-3.4
	c0.4-2.2,1.2-3.9,2.5-5.2c1.3-1.2,2.8-1.9,4.8-1.9c1.8,0,3,0.4,3.7,1.1c0.7,0.7,1.1,1.8,1.1,3.3C95.7,39,95.7,39.4,95.7,39.8
	 M112.2,23.7c0-0.3-0.1-0.6-0.3-0.8c-0.2-0.2-0.5-0.3-0.8-0.3h-2.5c-0.7,0-1.4,0.5-1.5,1.2L101.4,54v0.2c0,0.3,0.1,0.6,0.3,0.8
	c0.2,0.2,0.5,0.3,0.8,0.3h2.5c0.4,0,0.7-0.1,1-0.4c0.2-0.2,0.4-0.5,0.5-0.8l5.7-30.3C112.2,23.9,112.2,23.7,112.2,23.7z M119.3,30.2
	h-2.3c-0.4,0-0.7,0.1-1,0.4c-0.3,0.2-0.5,0.5-0.6,0.8L111.2,54v0.2c0,0.3,0.1,0.6,0.3,0.9c0.2,0.2,0.5,0.3,0.9,0.3h2.3
	c0.4,0,0.7-0.1,1-0.4c0.3-0.2,0.5-0.5,0.6-0.8l4.3-22.6v-0.2c0-0.3-0.1-0.6-0.3-0.9C120,30.3,119.7,30.2,119.3,30.2 M116.6,27.9h2.6
	c0.3,0,0.6-0.1,0.9-0.2c0.2-0.1,0.4-0.3,0.6-0.5l4.8-4c0.2-0.2,0.4-0.4,0.4-0.7c0-0.6-0.6-0.7-0.9-0.7h-3.1c-0.3,0-0.6,0.1-0.9,0.2
	c-0.2,0.1-0.4,0.3-0.6,0.5l-4.1,3.9c-0.2,0.2-0.4,0.5-0.4,0.8C115.8,27.7,116.3,27.9,116.6,27.9 M142.7,32.1
	c-0.6-0.7-1.4-1.2-2.4-1.6c-1-0.4-2.1-0.6-3.4-0.6c-1.7,0-3.1,0.2-4.3,0.6c-0.9,0.3-1.9,0.7-2.8,1.1l0-0.1l0,0v-0.2
	c0-0.3-0.1-0.5-0.3-0.8c-0.2-0.3-0.6-0.4-0.9-0.4h-2.3c-0.4,0-0.7,0.1-1,0.4c-0.3,0.2-0.5,0.5-0.5,0.8L120.6,54v0.2
	c0,0.3,0.1,0.5,0.3,0.8c0.2,0.3,0.6,0.4,0.9,0.4h2.4c0.4,0,0.7-0.1,1-0.4c0.3-0.2,0.5-0.5,0.6-0.8l3.5-18.5c1.4-0.6,2.6-1,3.5-1.2
	c1-0.2,1.9-0.3,2.8-0.3c1.7,0,2.8,0.3,3.2,0.8c0.5,0.5,0.8,1.2,0.8,2.2c0,0.3,0,0.7-0.1,1.1c-0.1,0.4-0.1,0.8-0.2,1.2L136.7,54v0.2
	c0,0.3,0.1,0.6,0.3,0.9c0.2,0.2,0.6,0.3,0.9,0.3h2.3c0.4,0,0.7-0.1,1-0.4c0.3-0.2,0.5-0.5,0.6-0.8l2.5-14.5c0.2-0.9,0.2-1.7,0.2-2.5
	c0-1-0.1-1.9-0.4-2.8C143.8,33.5,143.4,32.7,142.7,32.1 M166.9,32.4c-0.8-0.8-1.7-1.4-2.9-1.8c-1.1-0.4-2.5-0.7-4-0.7
	c-3.5,0-6.4,1-8.6,2.9c-2.2,1.9-3.7,4.7-4.5,8.4l-0.6,3.1c-0.2,1-0.3,1.9-0.3,2.8c0,1.6,0.3,2.9,0.9,4c0.6,1.1,1.3,2,2.2,2.7
	c0.9,0.7,2,1.2,3.2,1.5c1.2,0.3,2.4,0.5,3.6,0.5c1.6,0,3.1-0.1,4.4-0.2c1.3-0.1,2.6-0.3,4-0.6c0.4-0.1,0.8-0.2,1.1-0.4
	c0.2-0.2,0.3-0.6,0.4-0.9l0.3-1.5l0,0v-0.2c0-0.2-0.1-0.5-0.3-0.7c-0.2-0.2-0.5-0.2-0.7-0.2h-0.3c-1.2,0.2-2.5,0.3-3.9,0.4
	c-1.5,0.1-2.9,0.2-4.3,0.2c-1.8,0-3.1-0.4-4.1-1c-0.9-0.6-1.4-1.7-1.4-3.3c0-0.4,0-0.8,0.1-1.2c0-0.4,0.1-0.9,0.3-1.3l0.1-0.2H167
	c0.4,0,0.8-0.1,1.1-0.4c0.2-0.3,0.3-0.6,0.4-0.9l0.4-1.9c0.2-1,0.3-1.9,0.3-2.7c0-1.2-0.2-2.3-0.5-3.4
	C168.2,34.2,167.6,33.2,166.9,32.4 M163.8,40.7h-11.7c0.2-0.9,0.5-1.7,0.9-2.4c0.4-0.8,0.9-1.5,1.6-2.1c0.6-0.6,1.3-1.1,2.1-1.4
	c0.8-0.3,1.7-0.5,2.7-0.5c3.3,0.1,4.6,1.3,4.7,4.2C164.1,39.1,164,39.9,163.8,40.7 M193.6,32.1c0-0.7-0.6-1-1.2-1.1
	c-1.2-0.3-2.6-0.5-4-0.7c-1.5-0.2-2.9-0.3-4.4-0.3c-1.5,0-2.9,0.2-4.3,0.5c-1.4,0.4-2.6,0.9-3.8,1.7c-1.1,0.8-2.1,1.9-3,3.2
	c-0.8,1.3-1.4,3-1.8,4.9l-0.9,4.4c-0.2,0.9-0.3,1.8-0.3,2.7c0,1.4,0.2,2.6,0.6,3.7c0.4,1,1,1.9,1.7,2.6c0.7,0.7,1.6,1.2,2.5,1.5
	c0.9,0.3,1.9,0.5,3,0.5h0c0.8,0,1.6,0,2.2-0.2c0.7-0.1,1.3-0.3,1.9-0.5c0.6-0.2,1.2-0.5,1.8-0.8c0.4-0.2,0.7-0.4,1.1-0.6l-0.1,0.4
	l0,0v0.3c0,0.3,0.1,0.5,0.2,0.8c0.2,0.3,0.6,0.4,0.9,0.4h1.9c0.4,0,0.7-0.1,1-0.4c0.3-0.2,0.5-0.5,0.5-0.8l4.1-21.7
	C193.6,32.4,193.6,32.2,193.6,32.1 M185.3,49.2c-1.3,0.8-2.4,1.4-3.4,1.8c-1,0.4-2.1,0.6-3.1,0.6c-1.1,0-1.9-0.3-2.6-0.9
	c-0.7-0.5-1.1-1.6-1.1-3.2c0-0.3,0-0.6,0.1-1c0-0.3,0.1-0.7,0.1-1l0.9-4.6c0.4-2.3,1.3-4,2.5-5.1c1.2-1.1,3-1.7,5.4-1.7
	c1,0,1.9,0,2.5,0.1c0.5,0.1,1.1,0.1,1.6,0.2L185.3,49.2z M212.9,30.5c-0.5-0.1-1-0.2-1.4-0.2c-0.5-0.1-1-0.1-1.5-0.2
	c-0.5,0-1.1-0.1-1.8-0.1c-0.7,0-1.5,0-2.4,0c-1.2,0-2.4,0.1-3.6,0.3c-1.2,0.2-2.3,0.6-3.3,1.2c-1,0.6-1.8,1.3-2.4,2.2
	c-0.6,1-0.9,2.2-0.9,3.5c0,2.2,1.5,4.1,4.2,5.7l4.3,2.6c1.1,0.6,1.8,1.2,2.1,1.6c0.3,0.4,0.5,0.8,0.5,1.2c0,0.6-0.1,1.2-0.4,1.6
	c-0.3,0.4-0.6,0.8-1,1c-0.5,0.3-1,0.4-1.6,0.6c-0.6,0.1-1.3,0.2-1.9,0.2c-0.4,0-0.9,0-1.5,0c-0.6,0-1.3-0.1-2-0.1
	c-0.7,0-1.4-0.1-2-0.2c-0.7-0.1-1.3-0.1-1.9-0.2H194c-0.6,0-1.2,0.4-1.3,1l-0.3,1.6l0,0v0.2c0,0.3,0.1,0.7,0.4,0.9
	c0.2,0.1,0.4,0.2,0.7,0.3c0.6,0.1,1.2,0.2,1.8,0.3c0.7,0.1,1.3,0.2,2,0.2c0.7,0,1.3,0.1,2,0.1c0.6,0,1.2,0,1.7,0h0
	c1.3,0,2.6-0.1,3.9-0.4c1.3-0.3,2.4-0.7,3.4-1.3c1-0.6,1.8-1.4,2.4-2.4c0.6-1,0.9-2.3,0.9-3.8c0-1.1-0.3-2.1-0.9-3
	c-0.6-0.9-1.8-1.9-3.5-2.9l-4.3-2.6c-0.8-0.5-1.4-1-1.9-1.4c-0.4-0.4-0.5-0.7-0.5-1.2c0-0.6,0.1-1,0.4-1.3c0.3-0.3,0.6-0.6,1.1-0.8
	c0.4-0.2,0.9-0.4,1.5-0.4c0.6-0.1,1.1-0.1,1.6-0.1c1.3,0,2.6,0,3.9,0.1c1.3,0.1,2.3,0.1,3.1,0.2h0.2c0.7,0,1.3-0.4,1.4-1.1l0.2-1.5
	l0,0v-0.2C214,31.1,213.4,30.6,212.9,30.5"/>
<path class="st0" d="M67,64.5c-1.1-0.2-2.4-0.5-3.9-0.7c-1.5-0.2-3-0.3-4.5-0.3c-1.8,0-3.4,0.2-4.8,0.6c-1.4,0.4-2.7,1-3.8,1.9
	c-1.1,0.9-2,2-2.7,3.4c-0.7,1.4-1.3,3.1-1.6,5.1l-0.6,3.2c-0.2,1.1-0.3,2.1-0.3,3c0,1.4,0.2,2.6,0.7,3.7c0.5,1,1.1,1.9,1.9,2.5
	c0.8,0.7,1.8,1.1,2.9,1.5c1.1,0.3,2.3,0.5,3.6,0.5c0.4,0,0.8,0,1.3-0.1c0.5,0,1-0.1,1.5-0.2c0.5-0.1,1-0.1,1.5-0.2
	c0.3,0,0.6-0.1,0.9-0.1l0,0.2c-0.2,1-0.4,1.8-0.7,2.5c-0.3,0.7-0.7,1.2-1.1,1.6c-0.5,0.4-1.1,0.7-1.8,0.8c-0.7,0.2-1.6,0.3-2.6,0.3
	c-0.6,0-1.3,0-2.1-0.1c-0.7,0-1.5-0.1-2.2-0.1c-0.7,0-1.4-0.1-2.1-0.2c-0.6-0.1-1.2-0.1-1.6-0.2h-0.1h-0.1c-0.3,0-0.6,0.1-0.8,0.2
	c-0.2,0.1-0.4,0.4-0.4,0.7l-0.2,1.3v0v0h0c-0.1,0.1,0,0.2-0.1,0.2c0,0.5,0.4,0.8,1,0.9c0.7,0.2,1.7,0.4,3.1,0.5
	c1.4,0.2,3.1,0.3,4.9,0.3c1.7,0,3.2-0.1,4.5-0.4c1.3-0.3,2.4-0.7,3.3-1.4c0.9-0.7,1.7-1.6,2.3-2.8c0.6-1.2,1.1-2.6,1.4-4.3L68,65.8
	v0c0,0,0-0.1,0-0.1c0-0.1,0-0.2,0-0.2C68,64.9,67.6,64.6,67,64.5 M59.8,84.7c-0.3,0.1-0.7,0.1-1.1,0.2c-0.5,0.1-1,0.1-1.5,0.2
	c-0.5,0-1,0.1-1.4,0.1c-0.5,0-0.9,0-1.2,0c-1.8,0-3.1-0.3-3.9-0.9c-0.8-0.6-1.2-1.7-1.2-3.3c0-0.4,0-0.9,0.1-1.4
	c0-0.5,0.1-1.1,0.3-1.7l0.6-3.2c0.5-2.6,1.4-4.4,2.6-5.6c1.2-1.2,2.9-1.8,5.1-1.8c1,0,2,0,2.9,0.1c0.8,0.1,1.5,0.2,2.1,0.3
	L59.8,84.7z M140.6,59v-0.2c0-0.6-0.4-0.9-1-0.9h-2.4c-0.3,0-0.6,0.1-0.9,0.3c-0.3,0.2-0.4,0.4-0.5,0.7l-0.2,1.9V61
	c0,0.6,0.4,0.9,1,0.9h2.4c0.3,0,0.6-0.1,0.8-0.3c0.3-0.2,0.4-0.4,0.5-0.7 M45.2,67.3c0.7,0,1.3-0.3,1.4-0.9l0.3-1.9l0,0v-0.2
	c0-0.6-0.5-0.8-1.1-0.8h-0.1c-1.1,0-2.3,0.1-3.4,0.4c-1,0.3-2.1,0.8-3.3,1.5l0.1-0.5l0,0v-0.2c0-0.6-0.4-0.9-0.9-0.9h-2.2
	c-0.3,0-0.6,0.1-0.8,0.3c-0.2,0.2-0.4,0.4-0.5,0.7l-4.3,22.6v0.2c0,0.5,0.4,0.9,0.9,0.9h2.3c0.3,0,0.6-0.1,0.8-0.3
	c0.3-0.2,0.4-0.5,0.5-0.7l3.5-18.4c1.1-0.6,2.2-1.1,3.1-1.3c1-0.3,2.1-0.4,3.5-0.4L45.2,67.3L45.2,67.3z M125.5,67.5h5
	c0.3,0,0.6-0.1,0.8-0.3c0.2-0.2,0.4-0.4,0.5-0.7l0.3-1.5l0,0v-0.2c0-0.6-0.4-0.9-1-0.9h-4.9l0.7-3.7v-0.2c0-0.5-0.3-0.8-0.8-0.8
	h-0.1l-2.6,0.4c-0.7,0.1-1.1,0.5-1.2,1.1l-0.6,3.3l-3.2,0.1c-0.3,0-0.6,0.1-0.8,0.3c-0.2,0.2-0.4,0.4-0.5,0.7l-0.2,1.2l0,0v0.2
	c0,0.5,0.4,0.8,1,0.9l3,0.4L118,82.7c-0.1,0.4-0.1,0.7-0.1,0.9c0,0.3,0,0.5,0,0.9c0,1.6,0.6,2.8,1.7,3.4c1.1,0.7,2.5,1,4.2,1
	c0.5,0,1,0,1.5-0.1c0.5,0,1.1-0.1,1.5-0.2c0.4-0.1,0.7-0.2,0.8-0.3c0.2-0.1,0.3-0.4,0.3-0.6l0.3-1.6l0,0v-0.2c0-0.2-0.1-0.5-0.3-0.6
	c-0.2-0.1-0.3-0.1-0.5-0.1h-2.9c-0.7,0-1.3-0.1-1.6-0.2c-0.2-0.1-0.4-0.4-0.4-1c0-0.3,0-0.7,0.1-1.2L125.5,67.5z M187.9,65.4
	c0-0.5-0.4-0.8-1-0.9c-1.2-0.3-2.6-0.5-4-0.7c-1.5-0.2-2.9-0.3-4.4-0.3c-1.4,0-2.9,0.2-4.2,0.5c-1.4,0.3-2.6,0.9-3.7,1.7
	c-1.1,0.8-2.1,1.8-2.9,3.2c-0.8,1.3-1.4,2.9-1.8,4.9l-0.9,4.4c-0.2,0.9-0.3,1.8-0.3,2.7c0,1.4,0.2,2.6,0.6,3.6c0.4,1,1,1.9,1.6,2.5
	c0.7,0.7,1.5,1.1,2.4,1.5c0.9,0.3,1.9,0.5,3,0.5c0.8,0,1.5-0.1,2.2-0.2c0.6-0.1,1.3-0.3,1.9-0.5c0.6-0.2,1.2-0.5,1.8-0.8
	c0.5-0.3,1-0.6,1.5-0.9l-0.2,0.9v0.1v0.2c0,0.2,0.1,0.5,0.2,0.6c0.2,0.2,0.4,0.3,0.8,0.3h1.9c0.3,0,0.6-0.1,0.8-0.3
	c0.2-0.2,0.4-0.4,0.5-0.7l4.1-21.7C187.9,65.7,187.9,65.5,187.9,65.4 M180,82.6c-1.3,0.8-2.5,1.4-3.5,1.8c-1.1,0.4-2.1,0.6-3.2,0.6
	c-1.1,0-2-0.3-2.8-1c-0.7-0.6-1.1-1.7-1.1-3.4c0-0.3,0-0.7,0-1c0-0.3,0.1-0.7,0.1-1l0.9-4.6c0.4-2.3,1.3-4.1,2.6-5.3
	c1.2-1.2,3.1-1.8,5.5-1.8c1,0,1.9,0,2.6,0.1l0-0.2l0,0.2c0.6,0.1,1.2,0.2,1.8,0.3L180,82.6z M208.2,65c0-0.5-0.4-0.8-0.9-0.9
	c-0.5-0.1-1-0.2-1.4-0.2c-0.5-0.1-0.9-0.1-1.5-0.2c-0.5,0-1.1-0.1-1.8-0.1c-0.7,0-1.4,0-2.4,0c-1.2,0-2.4,0.1-3.6,0.3
	c-1.2,0.2-2.3,0.6-3.2,1.1c-0.9,0.5-1.7,1.3-2.3,2.2c-0.6,0.9-0.9,2.1-0.9,3.4c0,2.1,1.4,3.9,4.1,5.5l4.4,2.6
	c1.1,0.6,1.9,1.2,2.2,1.6c0.3,0.5,0.5,0.9,0.5,1.3c0,0.7-0.1,1.2-0.4,1.7c-0.3,0.5-0.7,0.8-1.1,1.1c-0.5,0.3-1,0.5-1.6,0.6
	c-0.6,0.1-1.3,0.2-2,0.2c-0.4,0-0.9,0-1.5,0c-0.6,0-1.3-0.1-1.9-0.1c-0.7,0-1.4-0.1-2-0.2c-0.7-0.1-1.3-0.1-1.9-0.2h-0.3
	c-0.6,0-1,0.3-1.1,0.8l-0.3,1.6l0,0v0.2c0,0.3,0.1,0.6,0.3,0.7c0.2,0.1,0.4,0.2,0.6,0.3c0.6,0.1,1.2,0.2,1.8,0.3
	c0.7,0.1,1.3,0.2,2,0.2c0.7,0,1.3,0.1,2,0.1c0.6,0,1.2,0,1.7,0c1.3,0,2.6-0.1,3.9-0.4c1.3-0.3,2.4-0.7,3.3-1.3
	c1-0.6,1.8-1.4,2.3-2.3c0.6-1,0.9-2.2,0.9-3.7c0-1-0.3-2-0.9-2.9c-0.6-0.9-1.7-1.8-3.4-2.8l-4.3-2.6c-0.8-0.5-1.5-1-1.9-1.4
	c-0.4-0.4-0.6-0.8-0.6-1.3c0-0.6,0.1-1.1,0.4-1.4c0.3-0.4,0.7-0.7,1.1-0.9c0.5-0.2,1-0.4,1.6-0.5c0.6-0.1,1.1-0.1,1.7-0.1
	c1.3,0,2.6,0,3.9,0.1c1.3,0.1,2.3,0.2,3.1,0.2h0.2c0.6,0,1.1-0.3,1.2-0.9l0.2-1.5l-0.2,0h0.2L208.2,65L208.2,65z M161.7,65.5
	c-0.6-0.6-1.4-1.2-2.3-1.5c-0.9-0.4-2.1-0.5-3.4-0.5c-1.6,0-3.1,0.2-4.3,0.6c-1.1,0.4-2.1,0.8-3.1,1.3l0.1-0.5v-0.2
	c0-0.2-0.1-0.4-0.2-0.6c-0.2-0.2-0.4-0.3-0.7-0.3h-2.3c-0.3,0-0.6,0.1-0.8,0.3c-0.2,0.2-0.4,0.5-0.5,0.7l-4.3,22.6v0.2
	c0,0.2,0.1,0.4,0.2,0.6c0.2,0.2,0.4,0.3,0.7,0.3h2.4c0.3,0,0.6-0.1,0.9-0.3c0.2-0.2,0.4-0.4,0.5-0.7l3.5-18.5
	c1.5-0.6,2.7-1.1,3.7-1.3c1-0.2,2-0.3,2.9-0.3c1.7,0,2.9,0.3,3.4,0.8c0.6,0.5,0.8,1.3,0.8,2.3c0,0.3,0,0.7-0.1,1.1
	c0,0.4-0.1,0.8-0.2,1.2l-2.8,14.5v0.2c0,0.6,0.4,0.9,1,0.9h2.3c0.3,0,0.6-0.1,0.9-0.3c0.3-0.2,0.4-0.5,0.5-0.7l2.8-14.5
	c0.2-0.8,0.2-1.7,0.2-2.4c0-1-0.1-1.9-0.4-2.7C162.8,66.9,162.3,66.2,161.7,65.5 M113.2,65.5c-0.6-0.6-1.4-1.2-2.3-1.5
	c-0.9-0.4-2.1-0.5-3.3-0.5c-1.6,0-3.1,0.2-4.3,0.6c-1.1,0.4-2.1,0.8-3.1,1.3l0.1-0.5v-0.2c0-0.2-0.1-0.4-0.2-0.6
	c-0.2-0.2-0.4-0.3-0.7-0.3H97c-0.3,0-0.6,0.1-0.8,0.3c-0.2,0.2-0.4,0.4-0.5,0.7l-4.2,22.6v0.2c0,0.2,0.1,0.4,0.2,0.6
	c0.2,0.2,0.4,0.3,0.7,0.3h2.3c0.3,0,0.6-0.1,0.9-0.3c0.3-0.2,0.4-0.5,0.5-0.7l3.5-18.5c1.5-0.7,2.7-1.1,3.7-1.3c1-0.2,2-0.3,2.9-0.3
	c1.7,0,2.8,0.3,3.4,0.8c0.6,0.5,0.8,1.3,0.8,2.3c0,0.3,0,0.7-0.1,1.1c0,0.4-0.1,0.8-0.2,1.2l-2.8,14.5v0.2c0,0.6,0.4,0.9,1,0.9h2.3
	c0.3,0,0.6-0.1,0.9-0.3c0.3-0.2,0.4-0.4,0.5-0.7l2.8-14.5c0.2-0.8,0.2-1.7,0.2-2.4c0-1-0.1-1.9-0.4-2.7
	C114.2,66.9,113.8,66.2,113.2,65.5 M88.6,65.9c-0.8-0.8-1.7-1.4-2.8-1.8c-1.1-0.4-2.4-0.7-3.9-0.7c-3.4,0-6.3,1-8.5,2.9
	c-2.2,1.9-3.6,4.7-4.4,8.2l-0.6,3.1c-0.2,1-0.3,1.9-0.3,2.8c0,1.5,0.3,2.8,0.8,3.9c0.5,1.1,1.3,1.9,2.2,2.6c0.9,0.7,1.9,1.1,3.1,1.4
	c1.1,0.3,2.3,0.4,3.5,0.4h0c1.6,0,3.1-0.1,4.3-0.2c1.3-0.1,2.6-0.3,4-0.6c0.4-0.1,0.7-0.2,1-0.4c0.2-0.2,0.3-0.5,0.4-0.8l0.3-1.5
	l0,0v-0.2c0-0.4-0.4-0.7-0.8-0.7h-0.3c-1.1,0.1-2.4,0.3-3.9,0.4c-1.5,0.1-2.9,0.2-4.3,0.2c-1.8,0-3.2-0.4-4.2-1.1
	c-1-0.7-1.5-1.8-1.5-3.4c0-0.4,0-0.8,0.1-1.3c0-0.4,0.1-0.9,0.3-1.4l0.1-0.4h15.8c0.4,0,0.7-0.1,0.9-0.3c0.2-0.2,0.3-0.5,0.4-0.8
	l0.4-1.9c0.2-1,0.3-1.9,0.3-2.7c0-1.2-0.2-2.3-0.5-3.3C89.9,67.6,89.4,66.7,88.6,65.9 M85.9,74.2L85.9,74.2l-12.2,0
	c0.2-1,0.5-1.9,1-2.7c0.4-0.8,1-1.6,1.6-2.2c0.6-0.6,1.4-1.1,2.2-1.5c0.8-0.3,1.8-0.5,2.8-0.5c3.4,0,4.9,1.4,4.9,4.5
	C86.2,72.5,86.1,73.3,85.9,74.2 M138.3,64.4h-2.3c-0.3,0-0.6,0.1-0.9,0.3c-0.2,0.2-0.4,0.4-0.5,0.7l-4.1,21.9v0.2
	c0,0.6,0.4,0.9,1,0.9h2.3c0.3,0,0.6-0.1,0.8-0.3c0.3-0.2,0.4-0.5,0.5-0.7l4.1-21.9v-0.2C139.3,64.8,138.9,64.4,138.3,64.4
	 M24.1,59.6c-0.3-0.5-0.7-0.9-1.1-1.2c-0.4-0.3-0.9-0.5-1.4-0.6c-0.5-0.1-1-0.1-1.4-0.1c-0.5,0-1,0.1-1.5,0.2
	c-0.6,0.1-1.1,0.3-1.6,0.6c-0.5,0.3-1,0.6-1.5,1.1c-0.5,0.5-0.9,1.1-1.2,1.8l-14,25.5C0,87.1,0,87.3,0,87.5c0,0.3,0.1,0.6,0.3,0.8
	c0.2,0.2,0.5,0.2,0.8,0.2H4c0.3,0,0.6-0.1,0.8-0.3c0.3-0.2,0.5-0.4,0.6-0.7l4.8-9.9h11.7l1.1,9.8c0,0.3,0.1,0.5,0.3,0.7
	c0.2,0.3,0.5,0.4,0.8,0.4h2.9c0.3,0,0.7-0.1,0.9-0.3c0.2-0.2,0.3-0.6,0.3-0.9V87l-3.6-25.6C24.6,60.7,24.4,60.1,24.1,59.6
	 M12.3,73.6l6.1-11c0.2-0.4,0.8-0.5,1.2-0.5c0.7,0,0.8,0.5,0.8,0.5l1.3,11H12.3z"/>
<path class="st0" d="M193.1,11.9c-9.4,1.6-22.1,2.8-31.6,5.7c-0.1,0-0.1,0.1,0,0.1c23.1-0.7,48.1-0.6,66.7,0c0,0,0.1-0.1,0.1-0.1
	c-0.4-2.2-2.2-4.7-7.3-4.7h-3c0,0-0.1,0.1-0.1,0.1c0.8,2.1-1.5,3.5-3,2.2c-0.6-0.5-1.3-1.9,0.4-3c1.2-0.9,3.1-2.1,4.2-2.8
	c4-2.5,3.4-6.1-1.9-6.5c-12.7-1-35.3-2.3-44.3-3c-0.2,0-0.3,0.1-0.2,0.2c7.4,4,14.1,4.4,21.5,7.1C199,8.9,198.1,11.1,193.1,11.9"/>
</svg>
